<svg width="736" height="466" viewBox="0 0 736 466" fill="none" xmlns="http://www.w3.org/2000/svg">
<path d="M471.752 366.683C471.777 366.455 471.801 366.235 471.826 365.995C472.106 362.89 472.066 358.544 470.673 355.202C470.296 354.454 469.896 353.683 469.634 352.652C469.335 351.652 469.499 350.116 470.134 349.165C471.37 347.284 472.798 346.379 474.183 345.257C476.746 343.487 478.733 341.657 482.895 341.038C482.8 341.053 483.147 340.988 483.415 340.858C483.703 340.731 484.017 340.561 484.329 340.373C484.955 339.995 485.581 339.547 486.189 339.071C487.405 338.116 488.56 337.047 489.617 335.922C495.033 330.603 500.844 326.759 506.067 323.552C507.806 322.516 509.422 321.476 510.893 320.487C511.161 320.307 511.429 320.125 511.695 319.943C514.898 317.71 518.094 315.477 520.921 312.63C521.111 312.424 521.291 312.231 521.489 312.021C523.185 309.887 526.858 307.869 530.323 307.853C533.83 307.606 537.564 307.762 541.943 307.884C551.045 307.874 563.332 309.287 578.43 304.562C580.725 303.726 582.921 302.665 584.958 301.351C588.364 299.342 591.051 297.243 595.888 296.372C597.996 296.165 601.051 295.014 603.583 294.001C604.213 293.744 604.84 293.477 605.46 293.2C607.724 292.153 610.282 291.143 611.349 289.651C612.403 288.182 612.378 285.441 612.498 282.951C612.566 281.256 612.63 279.568 612.976 277.761C613.173 276.86 613.392 275.875 614.168 274.873C614.964 273.813 616.426 273.413 617.392 273.402C626.015 273.067 634.625 274.91 642.372 278.686C646.065 280.287 649.597 283.031 652.202 280.184C655.087 278.153 658.004 277.081 661.29 276.358C664.745 275.718 667.495 272.721 669.413 269.414C674.996 260.507 682.936 253.127 693.174 249.673C709.066 242.725 723.858 226.836 728.007 210.131C726.224 196.619 710.963 188.1 698.476 182.27C689.257 178.51 683.457 170.054 678.344 162.354C674.706 157.07 670.354 152.012 665.922 147.245C662.672 143.447 659.186 140.641 657.379 134.689C657.688 129.042 652.376 124.862 647.479 121.692C646.917 121.334 646.347 120.983 645.758 120.63C645.255 120.33 644.751 120.023 644.243 119.709C638.149 115.911 631.803 111.666 625.486 107.191C621.566 104.393 616.707 101.083 613.529 99.1941C613.091 99.1582 613.001 99.0789 612.846 99.0214C612.715 98.9628 612.609 98.9056 612.512 98.8503C612.318 98.7385 612.155 98.6314 611.997 98.5225C611.681 98.3046 611.392 98.0846 611.111 97.8628C610.55 97.4183 610.02 96.9635 609.501 96.5025C608.464 95.5795 607.474 94.6313 606.517 93.6632C598.859 86.059 590.406 80.1947 583.486 76.0375C579.152 73.5328 574.718 71.038 570.826 70.5833C566.694 69.5804 564.5 67.5829 561.898 65.7388C557.453 62.5096 552.261 60.9095 547.664 60.2005C542.051 59.4938 537.158 57.28 533.308 54.5596C532.131 53.7502 530.998 52.8911 529.89 51.9997C523.779 46.9495 516.288 43.9838 508.553 42.0518C501.652 40.1858 494.913 38.0832 488.487 34.5442C484.786 32.3195 480.744 30.3288 476.69 29.0306C467.139 26.1165 457.798 22.7252 448.927 17.9144C437.886 13.9844 423.77 14.696 412.812 19.1592C409.525 21.0589 406.211 22.8517 402.827 24.5693C389.997 30.9073 377.624 38.0472 367.237 47.8976C362.346 52.0034 358.293 56.4713 351.479 58.9895C348.317 59.8035 344.775 62.978 341.947 65.6999C341.12 66.5224 340.293 67.3449 339.466 68.1675C336.407 71.2313 332.128 73.0289 327.8 73.0696C326.348 73.0881 324.897 73.1067 323.445 73.1253C317.326 73.2036 311.206 73.2822 305.086 73.3611C293.801 73.786 281.772 72.8835 271.48 76.293C265.057 79.796 257.394 81.0861 250.21 79.2861C248.809 78.9138 247.434 78.3977 246.143 77.7004C243.74 76.4431 240.642 75.1924 238.443 75.4839C233.286 75.4991 229.812 73.2904 225.834 71.4947C220.15 68.7389 213.989 66.5547 207.808 65.441C202.751 64.5446 197.885 63.0568 193.455 60.1749C191.339 58.6575 188.952 57.4566 186.517 56.363C175.484 51.6912 164.028 48.7267 153.418 48.403C152.436 48.3996 151.458 48.3827 150.484 48.3441C146.901 48.0515 142.864 48.2899 139.897 45.1555C138.8 43.8273 136.988 42.641 135.583 42.5242C132.373 42.0487 130.195 40.6535 127.905 39.2138C123.705 35.7737 118.749 37.44 114.395 38.9858C113.784 39.195 113.13 39.4073 112.29 39.3458C111.425 39.3237 110.505 38.5884 110.199 37.923C109.681 36.9169 109.583 36.011 109.467 35.1138C109.322 32.0678 106.511 30.6635 103.421 31.2057C100.367 31.6334 97.3501 33.0011 94.499 34.5797C91.0514 36.3692 88.0195 38.2622 83.587 38.9553C82.2123 38.9731 80.3704 40.0035 79.2629 41.1771C77.7107 42.8478 75.5192 43.9502 73.1696 43.9729C72.0051 43.9751 70.7505 43.6967 69.7279 42.872C68.684 42.0622 68.167 40.6376 68.241 39.433C67.5701 35.8524 64.712 31.7963 62.2557 28.5456C59.5464 25.0799 56.9123 21.7095 54.3865 18.4798C54.439 18.5331 54.3434 18.4421 54.2269 18.3866C54.1111 18.3257 53.9607 18.2621 53.8094 18.2061C53.4995 18.0915 53.1534 17.9922 52.8113 17.9053C52.1089 17.7283 51.398 17.5933 50.6785 17.473C49.2418 17.2354 47.7993 17.0663 46.3908 16.9278C43.1289 16.6121 39.9973 16.4575 37.0443 16.3728C36.4059 16.355 35.7943 16.3392 35.208 16.3257C29.9014 16.3642 23.8916 15.68 19.722 17.9736C17.8407 19.196 18.117 22.0556 18.6538 24.5819C19.2144 27.1576 20.0643 29.7279 20.9257 32.3164C22.49 37.2623 24.1491 41.9254 24.6877 47.4698C24.6883 49.2278 25.9089 51.354 27.4062 52.5125C28.4242 53.3329 29.4705 54.2497 29.7454 55.9823C29.8158 56.5505 29.6068 57.3621 29.0557 57.8224C28.4037 58.4157 27.4861 58.4166 26.8996 58.248C26.2835 58.0807 25.7932 57.7865 25.3538 57.46C24.6911 56.9591 24.1507 56.3599 23.689 55.7024C22.4797 53.9554 20.079 52.8629 17.7081 53.0911C16.262 53.237 14.9306 53.4586 14.5792 54.5473C14.1417 55.713 14.1872 57.3775 14.2133 58.9848C14.4621 63.1347 15.7814 67.7864 17.8663 72.2532C19.3482 75.4914 20.9747 78.6758 21.4206 82.9949C21.7605 85.6206 23.8575 88.8072 25.9685 91.4705C28.8821 94.9168 31.6035 98.9881 34.0128 103.425C36.3726 107.689 38.7136 112.191 41.2305 117C43.806 121.721 47.403 126.618 52.2522 130.041C54.1848 131.298 56.2154 132.704 57.6936 134.82C59.1852 136.942 59.7348 139.525 60.0595 142.001C60.1442 142.649 60.2478 143.29 60.3753 143.933C61.4642 149.827 64.6635 154.04 68.122 154.031C70.668 154.672 71.4167 156.133 72.5303 157.22C73.5371 158.373 74.3442 159.485 75.0553 160.575C75.2416 160.861 75.4204 161.146 75.5932 161.432C76.1811 162.402 76.7904 163.317 77.428 164.229C79.4888 167.127 81.8056 170.103 84.7251 172.907C85.9004 174.009 86.9305 175.268 87.9433 176.625C89.8196 179.188 91.6585 182.073 93.157 185.574C94.6159 188.79 96.0508 193.326 100.574 193.04C102.879 193.09 105.452 192.716 107.912 191.919C108.262 191.8 108.603 191.668 108.918 191.522C113.948 189.441 118.451 191.801 122.3 192.984C125.142 193.988 127.869 195.022 130.447 195.245C133.023 195.474 135.448 194.57 137.763 193.759C157.494 189.636 169.077 192.553 178.393 193.051C182.324 193.465 185.87 193.918 189.496 194.459C191.962 194.828 194.644 195.267 197.451 195.78C205.751 197.697 217.428 197.9 223.221 205.936C224.466 207.313 225.859 208.536 227.237 209.623C233.105 214.336 245.327 220.758 257.796 222.926C261.871 223.661 265.721 224.895 269.102 226.728C269.762 227.106 270.437 227.516 271.109 228.13C273.724 230.393 277.571 232.649 281.928 234.617C284.203 235.61 286.52 236.839 288.817 238.329C292.183 240.857 296.688 242.939 297.961 248.731C298.479 250.399 301.203 252.848 303.483 254.462C306.234 256.46 308.767 258.714 311.361 261.032C314.353 263.73 317.088 266.333 319.594 268.85C335.195 284.536 344.523 293.866 353.456 299.981C353.753 300.195 354.046 300.412 354.337 300.63C357.298 302.863 359.852 305.193 362.236 307.675C367.178 312.924 372.517 319.687 375.297 328.315C376.475 331.774 379.431 335.039 382.717 337.151C382.95 337.296 383.183 337.442 383.417 337.591C394.38 344.821 404.018 354.226 409.713 364.175C411.006 366.588 412.235 368.931 413.089 371.368C415.238 376.485 412.953 382.185 410.822 386.491C408.937 390.23 408.023 393.961 409.5 397.811C410.168 399.932 410.848 402.041 411.102 404.422C411.172 405.58 411.312 407.082 410.102 408.423C408.803 409.663 407.325 409.586 406.166 409.582C397.774 410.369 388.764 415.176 382.554 421.166C380.349 423.326 378.748 425.616 374.722 426.492C372.74 426.753 369.916 428.361 367.763 429.84C364.721 431.813 362.934 434.433 363.402 438.007C363.406 438.062 363.41 438.118 363.415 438.173C363.598 440.402 364.596 443.165 365.964 444.021C374.633 448.348 383.73 450.809 391.691 452.204C394.901 452.757 397.892 453.238 400.661 453.447C412.183 453.881 418.79 452.363 418.814 452.806C418.815 452.851 412.452 454.848 400.58 454.781C397.726 454.654 394.674 454.244 391.44 453.759C383.316 452.514 374.051 450.148 365.098 445.747C362.328 443.822 361.833 441.047 361.459 438.341C361.454 438.275 361.448 438.209 361.444 438.143C361.305 436.269 361.423 434.133 362.486 432.319C363.532 430.517 365.101 429.296 366.621 428.211C369.11 426.605 371.276 424.972 374.792 424.485C376.67 424.08 379.259 421.776 381.046 419.81C388.03 413.202 396.395 408.515 406.239 407.492C411.01 408.346 408.543 402.168 407.484 398.466C405.78 394.319 406.936 389.26 408.885 385.566C411.768 380.145 412.91 374.45 409.781 369.07C409.171 367.776 408.494 366.484 407.804 365.2C401.577 354.544 391.99 345.708 381.585 338.967C377.895 336.533 374.804 333.313 373.256 328.93C369.599 317.994 361.505 308.6 352.23 301.669C343.572 295.609 336.044 288.113 328.622 280.753C325.126 277.27 321.668 273.783 318.175 270.254C313.155 265.256 307.913 260.259 302.356 256.056C301.096 255.163 299.905 254.184 298.793 253.091C298.239 252.542 297.705 251.969 297.206 251.324C296.739 250.616 296.142 250.164 296.019 248.663C294.392 243.366 287.072 239.123 281.154 236.389C277.118 234.543 273.318 232.524 269.8 229.527C268.53 228.405 266.624 227.55 264.815 226.83C262.447 225.912 259.969 225.2 257.478 224.76C257.167 224.706 256.854 224.649 256.54 224.589C243.331 221.79 230.659 216.151 221.774 207.254C215.961 199.629 206.087 199.91 199.038 198.161C198.369 198.038 197.746 197.924 197.08 197.802C184.479 195.532 174.993 194.529 166.817 193.957C160.9 193.565 155.663 193.418 150.381 193.641C147.57 193.8 143.622 193.937 139.28 195.134C138.97 195.226 138.655 195.328 138.367 195.433C136.112 196.215 133.476 197.271 130.386 197.044C127.36 196.796 124.581 195.707 121.684 194.706C117.86 193.453 113.339 191.554 109.721 193.23C106.742 194.488 103.779 194.974 100.508 194.955C98.4365 195.01 95.6548 193.985 94.3715 192.023C93.0109 190.181 92.2247 188.237 91.4065 186.293C89.527 181.954 86.8081 177.556 83.4979 174.214C79.8097 170.577 76.7754 166.621 74.075 162.367C74.0559 162.336 74.0367 162.305 74.0175 162.274C73.206 160.964 72.2763 159.679 71.2319 158.487C70.7095 157.893 70.1577 157.321 69.5754 156.819C69.2853 156.569 68.9847 156.336 68.6961 156.154C68.4193 155.969 68.0747 155.846 68.0581 155.859C61.0363 155.123 59.0349 147.659 58.257 142.238C57.942 137.488 55.3966 133.912 51.2938 131.536C50.5571 131.06 49.8743 130.527 49.2308 129.976C45.2025 126.416 42.0712 122.232 39.7067 117.796C34.2941 107.463 29.736 98.1147 24.6922 92.5135C23.3075 90.8106 22.2461 89.1705 21.4279 87.6906C20.708 86.2698 19.8794 84.9938 19.7604 82.9369C19.4648 79.863 17.9033 76.2274 16.3631 72.9943C14.3251 68.6144 12.8593 64.0302 12.5192 59.0308C12.5104 57.4268 12.3688 55.8519 12.947 54.0437C13.2292 53.1298 14.1157 52.2163 15.0148 51.9057C15.903 51.5597 16.7296 51.4687 17.5362 51.3818C20.4272 51.1049 23.408 52.305 25.1184 54.6897C25.543 55.2908 26.0617 55.8305 26.6242 56.1953C27.1814 56.5834 27.8071 56.6334 27.8681 56.4945C27.9569 56.4177 28.0123 56.2784 27.9248 55.9359C27.8376 55.6135 27.6244 55.246 27.3598 54.9164C27.071 54.5555 26.7178 54.2242 26.3337 53.9332C24.3147 52.2672 22.9938 50.0883 22.9248 47.4081C22.4016 42.3545 20.6656 37.2079 19.2808 32.8667C17.5578 26.8427 14.3499 20.6642 18.4695 16.7367C24.776 13.3063 30.5976 14.748 37.0912 14.6167C40.9698 14.7388 45.1261 14.9273 49.8652 15.58C50.7605 15.7097 51.69 15.8625 52.6309 16.0705C53.1094 16.1774 53.5905 16.2969 54.0881 16.4585C54.5941 16.6618 55.0645 16.6857 55.7566 17.4049C58.1193 20.4321 60.718 23.7627 63.6191 27.4773C66.0039 30.8213 68.9042 34.0541 69.9695 39.4934C69.9421 40.1917 70.1357 40.8315 70.5801 41.306C72.5621 43.1948 76.2786 41.9696 77.9968 40.002C79.578 38.4373 81.334 37.3321 83.6471 37.2345C87.0971 36.6382 90.7091 34.6727 93.6689 33.0943C97.6465 30.9455 101.59 29.1868 105.75 29.4945C108.634 29.5689 111.037 32.348 111.098 34.9309C111.204 35.8828 111.388 36.9067 111.814 37.4123C112.145 37.8772 112.98 37.7741 113.851 37.4591C118.286 35.8067 124.326 34.1561 128.796 37.9016C130.803 39.2116 133.274 40.6024 135.638 40.942C137.489 41.1092 138.867 42.0426 140.173 43.1561C140.514 43.4622 140.838 43.794 141.134 44.1587C143.904 46.9961 149.123 46.6572 153.427 46.8046C166.62 47.3023 178.981 51.2063 188.74 55.6729C190.603 56.5759 192.525 57.5933 194.366 58.9192C198.106 61.3948 203.066 63.0526 208.042 63.9101C208.335 63.9547 208.634 64.0058 208.93 64.0606C214.992 65.2979 220.927 67.3792 226.532 70.1149C230.26 71.9336 234.684 73.9812 237.965 74.0312C238.193 73.9574 238.4 73.9247 238.601 73.9047C241.967 73.9104 244.458 75.1659 246.855 76.3818C250.923 78.5433 255.302 78.8413 259.126 78.5645C260.979 78.4179 262.748 78.1037 264.421 77.6618C266.644 77.0581 268.8 76.2019 270.806 75.0841C274.991 73.1459 279.35 73.0986 283.621 72.6929C284.692 72.6081 285.823 72.5298 287.006 72.4578C291.986 72.1557 297.923 71.9555 305.066 71.831C306.405 71.8078 307.786 71.7846 309.21 71.7614C315.684 71.6563 321.798 71.5703 327.779 71.4941C331.739 71.4532 335.59 69.8204 338.361 67.0577C339.188 66.2374 340.016 65.4165 340.846 64.5937C342.166 63.2855 343.563 62.0496 345.047 60.8932C346.975 59.5349 348.547 57.9189 351.533 57.4484C356.241 55.5827 361.376 51.005 366.21 46.7636C368.019 45.1255 369.886 43.4826 371.861 41.8448C378.275 36.4086 386.435 31.2848 394.796 26.8939C397.224 25.6018 399.674 24.3418 402.096 23.1169C405.52 21.3669 408.863 19.5404 411.976 17.7307C418.39 14.5452 424.727 14.3615 429.758 13.9831C433.386 13.8104 436.523 13.8827 439.607 14.1513C439.62 14.1525 439.634 14.1538 439.648 14.1551C439.86 14.1741 440.071 14.1942 440.279 14.2152C443.467 14.5528 446.695 14.8839 449.75 16.5072C458.336 21.1458 467.759 24.5652 477.162 27.4051C481.524 28.7976 485.509 30.7654 489.391 33.0792C494.353 35.8613 500.04 37.7324 505.606 39.4138C506.726 39.7371 507.858 40.0447 508.99 40.3277C509.833 40.5384 510.666 40.7568 511.498 40.9874C519.196 43.0064 526.382 46.62 531.087 50.5105C532.28 51.4578 533.409 52.286 534.453 52.9877C536.982 54.6972 541.519 57.3986 547.943 58.1655C552.814 58.8992 558.241 60.4854 563.199 64.048C565.531 65.7977 568.567 67.8498 570.916 68.409C571.445 68.4309 571.958 68.5099 572.473 68.6183C584.312 72.3362 594.034 80.0275 601.892 86.2998C604.101 88.1439 606.2 90.0425 608.162 92.0386C609.096 92.9898 610.055 93.9151 611.039 94.7997C611.532 95.2411 612.031 95.673 612.537 96.0777C612.788 96.2786 613.045 96.4753 613.292 96.6479C613.415 96.7336 613.537 96.8133 613.643 96.8754C613.695 96.9058 613.745 96.9316 613.771 96.9435C613.783 96.958 613.846 96.9447 613.608 96.9225C613.861 96.9373 613.961 96.9838 614.038 97.0063C614.127 97.0365 614.18 97.0587 614.238 97.0832C614.363 97.1369 614.441 97.1754 614.538 97.2238C618.779 99.657 622.547 102.417 626.772 105.389C627.351 105.803 627.944 106.222 628.543 106.641C630.981 108.346 633.645 110.151 636.509 112.046C639.03 113.712 641.711 115.456 644.54 117.223C645.158 117.607 645.967 118.111 646.922 118.684C649.932 120.74 655.644 123.272 658.854 130.164C659.409 131.573 659.688 133.167 659.623 134.767C660.582 137.772 664.128 141.992 667.276 145.427C667.364 145.522 667.453 145.616 667.542 145.71C672.085 150.581 676.404 155.557 680.247 161.106C685.359 168.782 690.885 176.696 699.409 180.131C700.574 180.638 701.726 181.166 702.863 181.716C706.173 183.289 708.947 184.835 711.112 186.132C712.66 187.06 713.967 187.892 715.279 188.783C717.062 190.004 718.884 191.313 721.213 193.374C723.038 194.984 725.012 197.097 726.191 198.667C726.738 199.386 727.135 199.972 727.483 200.515C727.876 201.132 728.214 201.702 728.602 202.407C728.883 202.922 729.169 203.462 729.479 204.147C729.951 205.254 730.633 206.738 730.795 209.271C730.81 209.594 730.812 209.917 730.8 210.239C729.767 219.252 723.851 226.672 718.202 233.591C711.436 241.401 703.824 248.316 696.042 251.655C695.395 251.92 694.661 252.182 693.937 252.385C686.562 254.606 677.393 261.692 671.812 270.813C671.509 271.33 671.188 271.84 670.848 272.341C668.803 275.375 665.78 278.319 661.807 279.059C658.978 279.644 655.96 280.848 653.877 282.344C653.077 282.951 652.181 283.629 650.95 283.974C649.712 284.32 648.486 284.122 647.525 283.856C645.157 283.155 643.214 282.115 641.165 281.131C636.508 278.839 631.366 277.334 626.259 276.614C623.309 276.2 620.362 276.05 617.516 276.183C615.442 275.713 615.452 280.164 615.288 283.049C615.181 285.181 615.217 287.226 614.514 289.463C614.041 291.26 612.06 293.093 609.902 294.069C608.872 294.585 607.757 295.066 606.528 295.59C605.902 295.856 605.246 296.123 604.559 296.391C601.752 297.453 599.348 298.608 595.798 298.952C593.09 299.476 589.343 301.631 586.354 303.517C583.957 305.063 581.36 306.278 578.688 307.201C578.371 307.317 578.038 307.433 577.703 307.546C577.697 307.548 577.692 307.549 577.687 307.551C570.159 310.12 559.348 311.239 544.474 310.794C543.511 310.767 542.668 310.737 541.859 310.704C539.501 310.608 537.783 310.531 536.199 310.478C534.122 310.425 532.235 310.327 529.645 310.59C527.103 310.786 525.032 311.916 522.903 314.454C522.434 314.968 521.941 315.438 521.437 315.898C517.393 319.486 512.609 322.863 507.488 325.933C507.125 326.147 506.76 326.367 506.395 326.59C506.034 326.81 505.645 327.052 505.241 327.307C501.576 329.665 496.05 333.33 491.538 337.721C491.401 337.864 491.264 338.005 491.124 338.145C488.723 340.335 487.019 342.698 482.804 343.653C480.797 343.931 477.914 345.703 475.768 347.321C474.489 348.317 473.109 349.355 472.398 350.425C471.707 351.348 472.215 352.55 472.962 354.027C474.672 358.187 474.657 362.163 474.319 366.273C474.041 368.358 473.942 370.485 472.808 372.7C471.528 375.078 468.936 375.756 466.998 376.338C464.659 377.025 462.314 378.182 460.381 379.644C459.952 379.977 459.546 380.336 459.245 380.695C457.609 382.484 455.758 383.895 452.945 384.047C450.507 384.283 447.408 385.866 444.911 387.399C441.336 389.894 436.321 390.972 432.042 389.918C428.99 389.354 425.924 388.849 424.64 391.58C422.313 396.726 423.193 405.616 427.015 409.016C428.884 409.748 430.69 410.513 432.517 411.385C432.806 411.547 433.212 411.61 433.086 411.6C432.993 411.601 432.833 411.787 432.864 411.763C432.873 411.75 432.903 411.62 432.907 411.475C432.928 410.856 432.77 410.031 432.599 409.257C431.558 402.881 437.617 397.271 443.821 398.35C444.787 398.542 445.929 399.11 446.561 400.058C447.198 400.982 447.429 401.968 447.596 402.888C447.899 404.741 447.905 406.52 447.906 408.302C447.903 409.067 447.924 409.838 447.966 410.607C448.179 413.853 448.554 417.325 449.708 420.013C455.985 433.333 443.523 444.129 436.072 447.922C425.628 453.242 418.758 452.865 418.814 452.806C418.701 452.396 425.485 452.254 435.432 446.77C442.663 442.823 453.733 432.345 448.011 420.883C446.537 417.472 446.272 414.17 446.006 410.716C445.96 409.913 445.935 409.106 445.936 408.297C445.844 405.043 446.13 400.572 443.389 400.307C438.916 399.328 433.632 404.375 434.606 408.806C434.788 409.662 434.989 410.482 434.97 411.562C434.955 411.84 434.934 412.151 434.774 412.554C434.648 412.947 434.104 413.528 433.542 413.618C432.485 413.77 432.083 413.436 431.612 413.25C429.889 412.434 428.06 411.664 426.265 410.969C422.196 408.346 422.207 404.519 421.525 401.122C421.172 397.643 420.923 394.041 422.796 390.465C423.562 388.971 425.511 387.386 427.411 387.336C429.255 387.176 430.856 387.486 432.453 387.773C435.48 388.383 438.427 388.257 441.129 386.954C442.01 386.548 442.871 386.056 443.718 385.515C444.023 385.321 444.332 385.132 444.642 384.949C447.27 383.519 449.508 382.105 453.025 381.766C454.393 381.745 456.386 380.516 457.457 379.207C460.111 376.427 463.06 375.102 466.34 374.026C467.922 373.56 469.466 373.029 470.214 372.153C471.215 371.051 471.498 368.796 471.752 366.683ZM73.9876 17.3793C73.9784 17.1411 74.1247 16.7766 74.1639 16.5405C74.1647 16.5363 74.1655 16.5321 74.1662 16.5279C74.1767 16.4735 74.1811 16.4206 74.1838 16.3588C74.186 16.2097 74.2046 16.0142 74.1696 15.5611C74.1339 15.4344 74.092 15.31 74.043 15.1848C73.569 13.9553 72.4123 12.9213 70.9435 12.4178C70.775 12.3604 70.6078 12.3049 70.442 12.2514C70.4184 12.246 70.3944 12.2405 70.3703 12.235C69.8929 12.1247 69.3135 12.0129 68.9487 11.901C68.492 11.759 68.1801 11.6614 67.9206 11.5812C66.4288 11.2811 64.8848 11.1491 63.4411 11.4168C62.9912 11.5015 62.5547 11.6275 62.1503 11.803C61.7783 11.9644 61.4336 12.1671 61.1355 12.4106C60.9752 12.5688 60.8449 12.7344 60.7397 12.8934C60.5918 13.1165 60.4933 13.3253 60.4103 13.4937C60.275 13.7658 60.1431 14.0707 60.0513 14.3724C60.0098 14.5044 59.9818 14.6249 59.9645 14.7404C59.9559 14.7971 59.9501 14.8508 59.9467 14.9007C59.9673 15.1793 60.0439 15.4532 60.1698 15.7213C60.1683 15.7435 60.1665 15.7656 60.1649 15.7883C60.1492 16.0747 60.3086 16.3891 60.673 16.8173C60.8338 17.0049 61.0369 17.2141 61.2913 17.4474C61.4592 17.6003 61.518 17.709 61.5694 17.8016C61.5845 17.8287 61.5989 17.854 61.6152 17.8778C61.6716 17.9598 61.7715 17.9902 61.8889 18.0226C62.0423 18.0651 62.2257 18.1119 62.3982 18.2834C62.9638 18.8316 63.3516 18.8586 63.6182 18.8794C63.6976 18.8849 63.7696 18.8892 63.839 18.9038C64.0655 18.9524 64.3437 19.1078 64.5571 19.2463C64.7225 19.3565 65.1115 19.4327 65.4102 19.452C65.5237 19.46 65.6686 19.4984 65.8402 19.5398C66.018 19.5828 66.2255 19.6291 66.4521 19.6475C67.0256 19.6926 67.3281 19.6944 67.5708 19.6978C67.64 19.6983 67.7045 19.6985 67.7688 19.6979C67.972 19.6961 68.2224 19.6973 68.4749 19.6898C68.7771 19.6814 69.0817 19.6597 69.311 19.6242C69.9082 19.6386 70.5048 19.6148 71.0934 19.5382C71.3958 19.4992 71.7011 19.5363 71.9644 19.6505C72.2262 19.7652 72.4235 19.9494 72.5013 20.1841C72.5788 20.4183 72.526 20.6889 72.3335 20.9348C72.1412 21.1805 71.8261 21.3751 71.4708 21.4643C70.7563 21.6441 70.028 21.7569 69.2964 21.8042C68.4054 21.8616 67.5103 21.8222 66.6325 21.6825C66.0184 21.5846 65.4123 21.4446 64.8169 21.2639C64.7557 21.2453 64.6947 21.2262 64.6339 21.2068C64.1158 21.1165 63.6002 20.9869 63.2495 20.8649C62.9549 20.7625 62.7671 20.642 62.6018 20.5343C62.4892 20.4604 62.3914 20.3939 62.2848 20.3434C62.2279 20.3164 62.1482 20.2801 62.0521 20.2344C61.665 20.0534 61.0036 19.7022 60.4946 19.2342C60.2702 19.0299 60.0283 18.759 59.8175 18.486C59.5141 18.0975 59.2775 17.6988 59.1224 17.5175C58.8503 17.2081 58.6253 16.7589 58.4943 16.34C58.3642 15.9379 58.3162 15.5666 58.2492 15.3589C58.1693 15.1085 58.1764 14.8789 58.2306 14.5529C58.2594 14.3873 58.3009 14.2031 58.3678 13.9728C58.3913 13.8934 58.4172 13.8091 58.4461 13.7193C58.571 13.3347 58.7222 13.0829 58.8562 12.8811C59.0501 12.5957 59.2075 12.401 59.3974 12.067C59.6099 11.6958 59.9163 11.3546 60.2036 11.1597C60.3345 11.0696 60.4788 10.9643 60.6349 10.8621C60.8399 10.7276 61.0634 10.6011 61.2841 10.5198C61.462 10.4546 61.6274 10.4362 61.7683 10.4252C61.8122 10.4219 61.8544 10.419 61.8949 10.4154C62.0323 10.3622 62.1709 10.313 62.3088 10.2676C62.3289 10.2531 62.3502 10.2374 62.3725 10.2213C62.4868 10.1399 62.6225 10.044 62.8123 9.96907C63.1084 9.852 63.3874 9.82539 63.6765 9.80884C63.9023 9.79614 64.1358 9.78975 64.3965 9.7572C64.5746 9.73493 64.7801 9.70066 64.9803 9.6719C65.2844 9.62853 65.5768 9.5977 65.7852 9.61759C65.8614 9.62499 65.927 9.65615 65.9916 9.68749C65.9919 9.68768 65.9922 9.68787 65.9925 9.68806C65.9969 9.69018 66.0013 9.69227 66.0057 9.69439C66.5059 9.68262 67.0024 9.69144 67.4993 9.71745C67.5427 9.71427 67.5866 9.71141 67.6303 9.70878C67.8453 9.69603 68.0513 9.68723 68.1906 9.65561C68.3436 9.62131 68.7056 9.64213 69.0941 9.67825C69.3416 9.70026 69.6066 9.72944 69.8182 9.7429C69.9425 9.75083 70.0511 9.80621 70.1627 9.86404C70.2677 9.91821 70.3719 9.9737 70.4956 9.99538C70.5577 10.0062 70.6269 10.0098 70.7012 10.0139C70.7665 10.0175 70.8359 10.0216 70.9074 10.0316C70.9734 10.0408 71.1093 10.0929 71.2857 10.1625C71.3643 10.1935 71.4508 10.2279 71.5424 10.2635C71.5814 10.2782 71.621 10.2933 71.6609 10.3086C72.0516 10.4033 72.4362 10.5258 72.8169 10.6829C72.9059 10.6941 72.9879 10.6946 73.0609 10.6803C73.1135 10.6701 73.1623 10.6512 73.2153 10.6338C73.2865 10.6097 73.3609 10.5856 73.4486 10.5825C73.5171 10.5801 73.585 10.6024 73.6183 10.6381C73.6338 10.6548 73.6418 10.6741 73.649 10.6917C73.6573 10.7117 73.6646 10.7296 73.6809 10.7388C73.6926 10.7454 73.7094 10.7446 73.7301 10.7438C73.763 10.7425 73.8072 10.742 73.8554 10.7708C74.0352 10.8786 74.224 11.015 74.4077 11.162C74.6086 11.3224 74.7995 11.4941 74.9525 11.6248C75.1265 11.7724 75.3325 12.0255 75.5183 12.2973C75.6463 12.4839 75.767 12.681 75.8695 12.8448C75.9708 13.006 76.0947 13.1646 76.2073 13.323C76.3443 13.5159 76.4644 13.7082 76.5162 13.8988C76.5265 13.937 76.5116 13.9966 76.4915 14.0699C76.4772 14.122 76.4602 14.1809 76.4475 14.2448C76.5351 14.469 76.6072 14.6965 76.6645 14.9316C76.6715 14.9386 76.6787 14.9458 76.6859 14.953C76.6861 14.9531 76.6862 14.9533 76.6864 14.9534C76.8489 15.1127 77.0744 15.3679 77.0168 15.7802C77.0016 15.8837 76.9599 15.95 76.922 16.0088C76.8847 16.0669 76.8508 16.1175 76.8449 16.1895C76.8382 16.2714 76.8634 16.3671 76.8873 16.4743C76.9209 16.6246 76.9514 16.7987 76.8916 16.9631C76.8876 16.9743 76.8831 16.9863 76.8785 16.9988C76.8354 17.1172 76.7654 17.291 76.6449 17.4455C76.5089 17.9526 76.2875 18.4382 75.9972 18.8686C75.5136 19.5901 74.8407 20.1456 74.1263 20.5148C73.7784 20.6961 73.39 20.7481 73.085 20.673C72.7811 20.5972 72.5759 20.414 72.5013 20.1841C72.4256 19.9535 72.4786 19.6921 72.5972 19.4488C72.7197 19.2044 72.9017 18.9942 73.1059 18.8382C73.4427 18.5831 73.7127 18.2847 73.9068 17.9612C73.9148 17.9423 73.9226 17.9235 73.9303 17.905C73.9876 17.7673 73.9972 17.6179 73.9922 17.4766C73.9912 17.4439 73.9895 17.4113 73.9876 17.3793Z" fill="url(#paint0_linear_191_267)"/>
<circle cx="341.603" cy="268.581" r="4" transform="rotate(2 341.603 268.581)" fill="white"/>
<circle cx="341.707" cy="268.684" r="7.5" transform="rotate(2 341.707 268.684)" stroke="white"/>
<path d="M330.889 240.628L336.361 240.646C337.531 240.646 338.503 240.898 339.277 241.42C340.051 241.924 340.447 242.734 340.447 243.85C340.447 244.48 340.267 245.038 339.925 245.542C339.583 246.046 339.133 246.388 338.557 246.604C339.349 246.784 339.943 247.144 340.375 247.72C340.807 248.278 341.023 248.98 341.023 249.826C341.023 252.238 339.403 253.444 336.163 253.444H330.889V240.628ZM332.545 242.086V246.136H335.587C335.929 246.136 336.217 246.118 336.469 246.1C336.721 246.082 336.991 246.046 337.315 245.974C337.621 245.902 337.873 245.794 338.053 245.65C338.233 245.506 338.395 245.308 338.539 245.056C338.683 244.786 338.737 244.462 338.737 244.102C338.737 243.724 338.683 243.4 338.557 243.148C338.449 242.896 338.305 242.698 338.125 242.554C337.963 242.41 337.729 242.32 337.441 242.248C337.153 242.176 336.883 242.122 336.649 242.104C336.415 242.086 336.109 242.086 335.749 242.086H332.545ZM332.545 247.468L332.527 252.04H335.911C336.343 252.04 336.685 252.022 336.937 252.004C337.207 251.986 337.513 251.932 337.837 251.86C338.161 251.77 338.431 251.644 338.611 251.482C338.809 251.32 338.971 251.086 339.097 250.78C339.241 250.474 339.295 250.114 339.295 249.682C339.295 249.322 339.259 248.998 339.169 248.746C339.079 248.476 338.935 248.26 338.719 248.116C338.503 247.954 338.305 247.828 338.125 247.738C337.945 247.63 337.675 247.576 337.333 247.54C336.973 247.504 336.703 247.468 336.523 247.468C336.325 247.468 336.037 247.468 335.641 247.468H332.545ZM344.561 240.628V253.444H343.013V240.628H344.561ZM355.157 252.22V253.426C354.833 253.534 354.491 253.606 354.113 253.606C353.231 253.606 352.781 253.138 352.763 252.238C351.881 253.21 350.765 253.714 349.397 253.714C348.479 253.714 347.759 253.48 347.219 253.012C346.679 252.544 346.427 251.896 346.427 251.086C346.427 249.43 347.525 248.458 349.721 248.188C349.865 248.152 350.063 248.134 350.351 248.116C351.395 247.99 352.025 247.846 352.277 247.702C352.547 247.504 352.691 247.18 352.691 246.712C352.691 245.686 351.989 245.182 350.585 245.182C349.865 245.182 349.307 245.326 348.947 245.614C348.569 245.902 348.353 246.388 348.281 247.072H346.787C346.805 246.064 347.165 245.29 347.849 244.75C348.533 244.192 349.469 243.922 350.675 243.922C351.971 243.922 352.943 244.21 353.591 244.822C353.789 245.002 353.933 245.254 354.041 245.578C354.131 245.884 354.185 246.136 354.203 246.334C354.203 246.532 354.221 246.838 354.221 247.234C354.221 247.684 354.203 248.368 354.185 249.286C354.149 250.222 354.149 250.906 354.149 251.356C354.149 251.698 354.185 251.932 354.275 252.076C354.365 252.22 354.527 252.274 354.779 252.274C354.869 252.274 354.995 252.256 355.157 252.22ZM352.691 248.638C352.583 248.71 352.457 248.782 352.349 248.854C352.223 248.908 352.061 248.962 351.881 248.998C351.701 249.034 351.575 249.052 351.503 249.07C351.431 249.088 351.287 249.106 351.035 249.142C350.783 249.178 350.639 249.196 350.639 249.196C350.261 249.232 350.009 249.268 349.901 249.286C349.793 249.304 349.577 249.358 349.253 249.448C348.929 249.52 348.713 249.628 348.587 249.736C348.443 249.844 348.317 249.988 348.191 250.204C348.065 250.42 348.011 250.672 348.011 250.96C348.011 251.428 348.173 251.806 348.497 252.094C348.821 252.364 349.289 252.508 349.865 252.508C350.585 252.508 351.251 252.292 351.827 251.86C352.403 251.428 352.691 250.906 352.691 250.33V248.638ZM364.591 250.06C364.447 251.176 364.033 252.076 363.313 252.724C362.593 253.39 361.675 253.714 360.523 253.714C359.119 253.714 358.039 253.282 357.265 252.418C356.509 251.554 356.113 250.384 356.113 248.926C356.113 247.378 356.527 246.154 357.319 245.254C358.129 244.354 359.209 243.886 360.577 243.886C361.729 243.886 362.629 244.174 363.313 244.75C363.997 245.326 364.411 246.136 364.519 247.198H362.935C362.665 245.848 361.891 245.182 360.613 245.182C359.713 245.182 359.011 245.506 358.507 246.154C357.985 246.802 357.733 247.702 357.733 248.818C357.733 249.934 357.967 250.834 358.471 251.482C358.957 252.13 359.641 252.454 360.505 252.454C361.189 252.454 361.765 252.238 362.197 251.842C362.629 251.428 362.917 250.834 363.043 250.06H364.591ZM374.079 244.156L370.389 247.522L374.349 253.444H372.405L369.219 248.584L367.761 249.934V253.444H366.267V240.628H367.761V248.206L372.027 244.156H374.079ZM389.953 244.39L388.297 244.408C388.117 242.662 387.055 241.798 385.111 241.798C384.193 241.798 383.473 241.978 382.969 242.356C382.465 242.716 382.213 243.238 382.213 243.922C382.213 244.156 382.249 244.372 382.321 244.552C382.393 244.732 382.519 244.876 382.699 245.02C382.879 245.164 383.041 245.272 383.185 245.38C383.347 245.47 383.599 245.56 383.923 245.65C384.265 245.758 384.535 245.83 384.733 245.866C384.949 245.902 385.255 245.974 385.687 246.064C386.227 246.172 386.659 246.28 387.001 246.37C387.361 246.46 387.775 246.604 388.243 246.802C388.729 247.018 389.107 247.234 389.395 247.486C389.683 247.738 389.917 248.062 390.133 248.458C390.349 248.872 390.439 249.34 390.439 249.844C390.439 250.744 390.187 251.5 389.683 252.112C389.179 252.724 388.567 253.138 387.847 253.372C387.127 253.624 386.335 253.732 385.453 253.732C383.851 253.732 382.573 253.354 381.601 252.598C380.629 251.842 380.143 250.708 380.143 249.214H381.781C381.817 250.312 382.195 251.104 382.879 251.608C383.581 252.112 384.481 252.364 385.597 252.364C386.479 252.364 387.235 252.166 387.865 251.806C388.477 251.446 388.801 250.852 388.801 250.024C388.801 249.628 388.711 249.304 388.549 249.034C388.369 248.764 388.117 248.548 387.757 248.368C387.397 248.188 387.037 248.062 386.677 247.954C386.317 247.846 385.831 247.72 385.255 247.594C385.165 247.576 385.111 247.558 385.075 247.54C383.743 247.252 382.879 247 382.483 246.82C381.223 246.28 380.611 245.362 380.611 244.03C380.611 242.806 381.061 241.906 381.961 241.294C382.861 240.682 383.959 240.376 385.237 240.376C386.641 240.376 387.775 240.718 388.603 241.384C389.449 242.068 389.899 243.058 389.953 244.39ZM400.509 252.22V253.426C400.185 253.534 399.843 253.606 399.465 253.606C398.583 253.606 398.133 253.138 398.115 252.238C397.233 253.21 396.117 253.714 394.749 253.714C393.831 253.714 393.111 253.48 392.571 253.012C392.031 252.544 391.779 251.896 391.779 251.086C391.779 249.43 392.877 248.458 395.073 248.188C395.217 248.152 395.415 248.134 395.703 248.116C396.747 247.99 397.377 247.846 397.629 247.702C397.899 247.504 398.043 247.18 398.043 246.712C398.043 245.686 397.341 245.182 395.937 245.182C395.217 245.182 394.659 245.326 394.299 245.614C393.921 245.902 393.705 246.388 393.633 247.072H392.139C392.157 246.064 392.517 245.29 393.201 244.75C393.885 244.192 394.821 243.922 396.027 243.922C397.323 243.922 398.295 244.21 398.943 244.822C399.141 245.002 399.285 245.254 399.393 245.578C399.483 245.884 399.537 246.136 399.555 246.334C399.555 246.532 399.573 246.838 399.573 247.234C399.573 247.684 399.555 248.368 399.537 249.286C399.501 250.222 399.501 250.906 399.501 251.356C399.501 251.698 399.537 251.932 399.627 252.076C399.717 252.22 399.879 252.274 400.131 252.274C400.221 252.274 400.347 252.256 400.509 252.22ZM398.043 248.638C397.935 248.71 397.809 248.782 397.701 248.854C397.575 248.908 397.413 248.962 397.233 248.998C397.053 249.034 396.927 249.052 396.855 249.07C396.783 249.088 396.639 249.106 396.387 249.142C396.135 249.178 395.991 249.196 395.991 249.196C395.613 249.232 395.361 249.268 395.253 249.286C395.145 249.304 394.929 249.358 394.605 249.448C394.281 249.52 394.065 249.628 393.939 249.736C393.795 249.844 393.669 249.988 393.543 250.204C393.417 250.42 393.363 250.672 393.363 250.96C393.363 251.428 393.525 251.806 393.849 252.094C394.173 252.364 394.641 252.508 395.217 252.508C395.937 252.508 396.603 252.292 397.179 251.86C397.755 251.428 398.043 250.906 398.043 250.33V248.638ZM403.391 244.156V245.596C404.147 244.48 405.209 243.904 406.559 243.904C407.639 243.904 408.431 244.192 408.917 244.768C409.403 245.344 409.655 246.172 409.655 247.27V253.444H408.125V247.972C408.125 247.522 408.107 247.162 408.071 246.91C408.035 246.658 407.963 246.37 407.855 246.082C407.729 245.794 407.531 245.578 407.243 245.434C406.955 245.308 406.577 245.236 406.127 245.236C404.363 245.236 403.481 246.352 403.481 248.584V253.444H401.951V244.156H403.391ZM420.323 240.628V253.444H418.883V252.076C418.289 253.156 417.263 253.696 415.823 253.696C414.491 253.696 413.447 253.264 412.673 252.382C411.899 251.5 411.521 250.294 411.521 248.782C411.521 247.378 411.881 246.226 412.601 245.29C413.321 244.354 414.383 243.886 415.751 243.886C417.083 243.886 418.091 244.39 418.793 245.398V240.628H420.323ZM415.949 245.2C415.067 245.2 414.365 245.524 413.861 246.154C413.357 246.802 413.105 247.666 413.105 248.746C413.105 249.88 413.357 250.78 413.879 251.446C414.401 252.112 415.103 252.436 415.985 252.436C416.867 252.436 417.569 252.13 418.073 251.482C418.577 250.834 418.829 249.952 418.829 248.8C418.829 247.792 418.577 246.928 418.109 246.244C417.641 245.56 416.921 245.2 415.949 245.2ZM429.517 246.856H427.987C427.879 245.74 427.123 245.164 425.719 245.164C425.125 245.164 424.657 245.29 424.333 245.506C423.991 245.74 423.829 246.046 423.829 246.424C423.829 246.532 423.829 246.64 423.865 246.748C423.883 246.856 423.919 246.946 423.991 247.018C424.063 247.09 424.117 247.162 424.171 247.216C424.225 247.288 424.315 247.342 424.441 247.396C424.567 247.45 424.657 247.486 424.729 247.522C424.801 247.558 424.909 247.612 425.089 247.648C425.269 247.684 425.395 247.72 425.467 247.738C425.539 247.756 425.665 247.792 425.881 247.828C426.097 247.882 426.223 247.918 426.295 247.918C426.727 248.026 427.069 248.098 427.285 248.152C427.501 248.224 427.807 248.332 428.203 248.494C428.599 248.656 428.887 248.818 429.103 248.998C429.301 249.178 429.481 249.412 429.643 249.718C429.805 250.024 429.895 250.366 429.895 250.744C429.895 251.644 429.535 252.382 428.833 252.922C428.131 253.462 427.195 253.732 426.043 253.732C424.783 253.732 423.811 253.462 423.127 252.904C422.443 252.364 422.083 251.554 422.047 250.51H423.559C423.631 251.824 424.477 252.472 426.079 252.472C426.763 252.472 427.303 252.346 427.717 252.058C428.131 251.77 428.347 251.392 428.347 250.924C428.347 250.618 428.239 250.366 428.023 250.15C427.807 249.952 427.555 249.808 427.303 249.718C427.033 249.628 426.655 249.52 426.169 249.394C426.097 249.394 426.043 249.376 426.007 249.358C425.899 249.34 425.665 249.286 425.305 249.214C424.945 249.142 424.693 249.07 424.549 249.016C424.387 248.98 424.153 248.908 423.865 248.8C423.577 248.692 423.361 248.584 423.217 248.476C423.073 248.368 422.911 248.224 422.731 248.044C422.551 247.864 422.443 247.666 422.371 247.432C422.299 247.198 422.263 246.928 422.263 246.622C422.263 245.794 422.569 245.128 423.217 244.624C423.865 244.138 424.729 243.886 425.809 243.886C426.889 243.886 427.789 244.156 428.473 244.66C429.157 245.182 429.517 245.92 429.517 246.856ZM442.302 240.322C444.246 240.322 445.758 240.934 446.838 242.158C447.918 243.382 448.458 244.966 448.458 246.928C448.458 248.908 447.918 250.546 446.856 251.824C445.776 253.12 444.264 253.75 442.32 253.75C441.312 253.75 440.43 253.57 439.638 253.21C438.846 252.85 438.198 252.364 437.694 251.716C437.19 251.086 436.812 250.366 436.56 249.538C436.308 248.728 436.182 247.846 436.182 246.892C436.182 244.894 436.722 243.292 437.838 242.104C438.954 240.916 440.43 240.322 442.302 240.322ZM442.302 241.798C440.862 241.798 439.764 242.302 439.008 243.31C438.252 244.318 437.856 245.542 437.856 247.018C437.856 248.638 438.27 249.916 439.08 250.87C439.89 251.824 440.97 252.292 442.32 252.292C443.67 252.292 444.75 251.824 445.56 250.852C446.352 249.898 446.766 248.62 446.766 247.018C446.766 245.434 446.352 244.174 445.542 243.22C444.732 242.284 443.652 241.798 442.302 241.798ZM458.534 252.22V253.426C458.21 253.534 457.868 253.606 457.49 253.606C456.608 253.606 456.158 253.138 456.14 252.238C455.258 253.21 454.142 253.714 452.774 253.714C451.856 253.714 451.136 253.48 450.596 253.012C450.056 252.544 449.804 251.896 449.804 251.086C449.804 249.43 450.902 248.458 453.098 248.188C453.242 248.152 453.44 248.134 453.728 248.116C454.772 247.99 455.402 247.846 455.654 247.702C455.924 247.504 456.068 247.18 456.068 246.712C456.068 245.686 455.366 245.182 453.962 245.182C453.242 245.182 452.684 245.326 452.324 245.614C451.946 245.902 451.73 246.388 451.658 247.072H450.164C450.182 246.064 450.542 245.29 451.226 244.75C451.91 244.192 452.846 243.922 454.052 243.922C455.348 243.922 456.32 244.21 456.968 244.822C457.166 245.002 457.31 245.254 457.418 245.578C457.508 245.884 457.562 246.136 457.58 246.334C457.58 246.532 457.598 246.838 457.598 247.234C457.598 247.684 457.58 248.368 457.562 249.286C457.526 250.222 457.526 250.906 457.526 251.356C457.526 251.698 457.562 251.932 457.652 252.076C457.742 252.22 457.904 252.274 458.156 252.274C458.246 252.274 458.372 252.256 458.534 252.22ZM456.068 248.638C455.96 248.71 455.834 248.782 455.726 248.854C455.6 248.908 455.438 248.962 455.258 248.998C455.078 249.034 454.952 249.052 454.88 249.07C454.808 249.088 454.664 249.106 454.412 249.142C454.16 249.178 454.016 249.196 454.016 249.196C453.638 249.232 453.386 249.268 453.278 249.286C453.17 249.304 452.954 249.358 452.63 249.448C452.306 249.52 452.09 249.628 451.964 249.736C451.82 249.844 451.694 249.988 451.568 250.204C451.442 250.42 451.388 250.672 451.388 250.96C451.388 251.428 451.55 251.806 451.874 252.094C452.198 252.364 452.666 252.508 453.242 252.508C453.962 252.508 454.628 252.292 455.204 251.86C455.78 251.428 456.068 250.906 456.068 250.33V248.638ZM466.87 246.856H465.34C465.232 245.74 464.476 245.164 463.072 245.164C462.478 245.164 462.01 245.29 461.686 245.506C461.344 245.74 461.182 246.046 461.182 246.424C461.182 246.532 461.182 246.64 461.218 246.748C461.236 246.856 461.272 246.946 461.344 247.018C461.416 247.09 461.47 247.162 461.524 247.216C461.578 247.288 461.668 247.342 461.794 247.396C461.92 247.45 462.01 247.486 462.082 247.522C462.154 247.558 462.262 247.612 462.442 247.648C462.622 247.684 462.748 247.72 462.82 247.738C462.892 247.756 463.018 247.792 463.234 247.828C463.45 247.882 463.576 247.918 463.648 247.918C464.08 248.026 464.422 248.098 464.638 248.152C464.854 248.224 465.16 248.332 465.556 248.494C465.952 248.656 466.24 248.818 466.456 248.998C466.654 249.178 466.834 249.412 466.996 249.718C467.158 250.024 467.248 250.366 467.248 250.744C467.248 251.644 466.888 252.382 466.186 252.922C465.484 253.462 464.548 253.732 463.396 253.732C462.136 253.732 461.164 253.462 460.48 252.904C459.796 252.364 459.436 251.554 459.4 250.51H460.912C460.984 251.824 461.83 252.472 463.432 252.472C464.116 252.472 464.656 252.346 465.07 252.058C465.484 251.77 465.7 251.392 465.7 250.924C465.7 250.618 465.592 250.366 465.376 250.15C465.16 249.952 464.908 249.808 464.656 249.718C464.386 249.628 464.008 249.52 463.522 249.394C463.45 249.394 463.396 249.376 463.36 249.358C463.252 249.34 463.018 249.286 462.658 249.214C462.298 249.142 462.046 249.07 461.902 249.016C461.74 248.98 461.506 248.908 461.218 248.8C460.93 248.692 460.714 248.584 460.57 248.476C460.426 248.368 460.264 248.224 460.084 248.044C459.904 247.864 459.796 247.666 459.724 247.432C459.652 247.198 459.616 246.928 459.616 246.622C459.616 245.794 459.922 245.128 460.57 244.624C461.218 244.138 462.082 243.886 463.162 243.886C464.242 243.886 465.142 244.156 465.826 244.66C466.51 245.182 466.87 245.92 466.87 246.856ZM470.596 240.628V242.5H469.048V240.628H470.596ZM470.596 244.156V253.444H469.048V244.156H470.596ZM479.86 246.856H478.33C478.222 245.74 477.466 245.164 476.062 245.164C475.468 245.164 475 245.29 474.676 245.506C474.334 245.74 474.172 246.046 474.172 246.424C474.172 246.532 474.172 246.64 474.208 246.748C474.226 246.856 474.262 246.946 474.334 247.018C474.406 247.09 474.46 247.162 474.514 247.216C474.568 247.288 474.658 247.342 474.784 247.396C474.91 247.45 475 247.486 475.072 247.522C475.144 247.558 475.252 247.612 475.432 247.648C475.612 247.684 475.738 247.72 475.81 247.738C475.882 247.756 476.008 247.792 476.224 247.828C476.44 247.882 476.566 247.918 476.638 247.918C477.07 248.026 477.412 248.098 477.628 248.152C477.844 248.224 478.15 248.332 478.546 248.494C478.942 248.656 479.23 248.818 479.446 248.998C479.644 249.178 479.824 249.412 479.986 249.718C480.148 250.024 480.238 250.366 480.238 250.744C480.238 251.644 479.878 252.382 479.176 252.922C478.474 253.462 477.538 253.732 476.386 253.732C475.126 253.732 474.154 253.462 473.47 252.904C472.786 252.364 472.426 251.554 472.39 250.51H473.902C473.974 251.824 474.82 252.472 476.422 252.472C477.106 252.472 477.646 252.346 478.06 252.058C478.474 251.77 478.69 251.392 478.69 250.924C478.69 250.618 478.582 250.366 478.366 250.15C478.15 249.952 477.898 249.808 477.646 249.718C477.376 249.628 476.998 249.52 476.512 249.394C476.44 249.394 476.386 249.376 476.35 249.358C476.242 249.34 476.008 249.286 475.648 249.214C475.288 249.142 475.036 249.07 474.892 249.016C474.73 248.98 474.496 248.908 474.208 248.8C473.92 248.692 473.704 248.584 473.56 248.476C473.416 248.368 473.254 248.224 473.074 248.044C472.894 247.864 472.786 247.666 472.714 247.432C472.642 247.198 472.606 246.928 472.606 246.622C472.606 245.794 472.912 245.128 473.56 244.624C474.208 244.138 475.072 243.886 476.152 243.886C477.232 243.886 478.132 244.156 478.816 244.66C479.5 245.182 479.86 245.92 479.86 246.856Z" fill="white"/>
<defs>
<linearGradient id="paint0_linear_191_267" x1="39.1649" y1="49.3604" x2="562.276" y2="227.225" gradientUnits="userSpaceOnUse">
<stop stop-color="white" stop-opacity="0.05"/>
<stop offset="0.618042" stop-color="white"/>
<stop offset="0.9999" stop-color="white"/>
</linearGradient>
</defs>
</svg>
